<svg width="408" height="164" viewBox="0 0 408 164" fill="none" xmlns="http://www.w3.org/2000/svg">
<path d="M332.496 111.678C332.482 110.27 332.456 107.798 332.449 104.85C333.361 99.7348 335.338 94.7051 337.651 93.9781C340.506 93.0924 343.223 91.5723 345.318 89.4111C346.924 87.7587 348.047 85.657 348.768 83.4759C349.283 81.8962 350.44 78.5585 349.026 77.1904C347.591 75.8024 344.782 76.589 342.231 77.8844C340.176 78.9287 338.285 80.3166 337.439 81.156C335.926 82.6563 335.272 84.5135 335.179 86.6087C335.113 88.1222 335.424 89.7944 334.855 91.255C333.646 94.335 332.701 94.8571 332.542 94.9298C332.601 92.3059 332.681 89.768 332.813 87.6464C333.368 78.7039 340.777 74.0113 342.621 66.9592C344.465 59.9004 337.155 49.5039 335.734 48.3275C334.313 47.151 328.153 51.4338 323.943 60.9975C319.746 70.5678 327.578 78.8361 328.239 86.8863C328.411 88.9484 328.391 91.4335 328.279 93.9781C320.354 89.8935 328.239 87.3556 323.943 80.1514C319.647 72.9274 307.79 65.016 307.228 75.2605C306.66 85.4917 311.485 89.5433 319.72 93.7137C327.948 97.8776 326.944 107.904 326.944 107.904C326.818 108.73 326.759 109.199 326.759 109.199L326.263 110.482C320.13 109.503 312.562 108.763 302.952 108.234C304.069 109.993 305.338 111.658 306.752 113.211C313.844 121.024 323.117 124.93 334.591 124.93C341.617 124.93 347.664 123.687 352.714 121.195C347.538 116.926 342.132 113.859 332.509 111.678H332.496ZM331.597 73.1191C330.586 72.9935 330.169 69.5897 330.665 65.5183C331.18 61.4404 332.403 58.2348 333.414 58.3604C334.426 58.4926 334.842 61.8964 334.333 65.9678C333.831 70.0457 332.601 73.238 331.59 73.1191H331.597Z" fill="#0F8D39"/>
<path d="M6.54323 160.831C2.92793 160.831 0 157.904 0 154.288V9.57693C0 5.96162 2.92793 3.03369 6.54323 3.03369H61.6981C80.9048 3.03369 95.0224 6.68865 104.051 13.9986C113.079 21.3085 117.593 31.4142 117.593 44.309C117.593 51.9097 115.69 58.6049 111.896 64.4079C109.285 68.4 105.875 71.7311 101.671 74.4012C99.5431 75.7562 99.7546 78.9287 102.081 79.8936C108.757 82.6563 114.031 86.5294 117.91 91.4996C122.993 98.023 125.544 105.723 125.544 114.612C125.544 129.662 120.349 141.129 109.959 149.007C99.563 156.892 83.2644 160.831 61.0504 160.831H6.53663H6.54323ZM38.9157 38.3804V62.7027C38.9157 64.4146 40.3037 65.8091 42.0221 65.8091H60.634C66.0801 65.8091 70.4158 64.5203 73.6412 61.9427C76.8665 59.365 78.4792 55.5647 78.4792 50.5482C78.4792 45.5317 76.8665 41.7313 73.6412 39.1537C70.4158 36.576 66.0801 35.2872 60.634 35.2872H42.0221C40.3103 35.2872 38.9157 36.6752 38.9157 38.3936V38.3804ZM38.9157 98.3601V125.472C38.9157 127.183 40.3037 128.578 42.0221 128.578H63.4231C70.0126 128.578 75.1745 127.15 78.9022 124.282C82.6299 121.413 84.4937 117.263 84.4937 111.81C84.4937 106.357 82.6299 102.24 78.9022 99.4506C75.1745 96.6549 70.0126 95.2603 63.4231 95.2603H42.0221C40.3103 95.2603 38.9157 96.6483 38.9157 98.3667V98.3601Z" fill="#10CE50"/>
<path d="M137.818 160.831C134.203 160.831 131.275 157.904 131.275 154.288V9.57692C131.275 5.96162 134.203 3.03368 137.818 3.03368H164.929C168.545 3.03368 171.473 5.96162 171.473 9.57692V58.8297C171.473 61.7444 175.134 63.053 176.978 60.7926L222.635 4.9636C223.633 3.67478 225.002 3.02707 226.72 3.02707H264.77C265.629 3.02707 266.31 3.20552 266.812 3.56242C267.315 3.91933 267.566 4.3886 267.566 4.957C267.566 5.81622 267.275 6.53663 266.706 7.10504L220.21 60.6935C219.344 61.6915 219.205 63.1257 219.86 64.2691L272.728 156.734C273.157 157.309 273.375 157.956 273.375 158.67C273.375 160.104 272.371 160.818 270.368 160.818H231.889C230.17 160.818 228.881 160.032 228.022 158.452L193.839 97.1704C192.794 95.2934 190.197 95.0224 188.789 96.6417L172.246 115.65C171.757 116.212 171.486 116.939 171.486 117.686V154.268C171.486 157.884 168.558 160.812 164.943 160.812H137.831L137.818 160.831Z" fill="#10CE50"/>
<path d="M405.304 108.803L372.634 100.211C370.764 99.6423 369.402 100.422 368.55 102.577C365.37 111.261 360.202 117.415 353.031 121.043C352.925 121.103 352.819 121.149 352.707 121.195C347.651 123.694 341.61 124.93 334.584 124.93C323.11 124.93 313.838 121.023 306.746 113.211C305.338 111.665 304.062 109.999 302.945 108.234C302.873 108.129 302.8 108.023 302.734 107.911C298.306 100.885 296.098 92.2134 296.098 81.9293C296.098 68.8825 299.614 58.4595 306.633 50.6407C313.652 42.8351 322.972 38.929 334.584 38.929C348.199 38.929 358.232 44.4412 364.683 55.4787C365.549 56.7676 366.54 57.4087 367.69 57.4087C368.259 57.4087 368.695 57.3359 368.979 57.1971L401.874 48.3803C402.594 48.2349 403.202 47.9176 403.698 47.4087C404.2 46.913 404.458 46.2984 404.458 45.5846C404.458 45.5119 404.418 45.3466 404.352 45.1021C404.181 44.5205 403.982 43.9587 403.757 43.4035C398.166 29.5437 389.547 18.8763 377.908 11.4011C366.084 3.80037 351.643 0 334.584 0C319.396 0 305.734 3.44346 293.626 10.3238C281.518 17.2041 271.987 26.8405 265.041 39.2396C258.088 51.6387 254.611 65.862 254.611 81.9161C254.611 97.9701 257.903 112.405 264.499 124.804C271.088 137.197 280.441 146.8 292.549 153.614C299.165 157.335 306.31 160.032 314.003 161.711C320.414 163.118 327.202 163.826 334.373 163.826C337.281 163.826 340.129 163.713 342.899 163.475C357.73 162.226 370.579 157.652 381.451 149.741C394.352 140.356 403.163 127.924 407.895 112.445C408.318 110.726 407.465 109.51 405.311 108.783L405.304 108.803Z" fill="#10CE50"/>
</svg>
